<svg xmlns="http://www.w3.org/2000/svg" width="256" height="256" viewBox="0 0 256 256">
<g>
<path d="M 71.29 232.61 C57.49,228.10 49.39,218.43 47.03,203.67 C46.44,199.96 44.59,191.03 42.92,183.82 C39.34,168.33 39.38,165.63 43.18,165.19 C46.46,164.81 47.37,166.30 49.03,174.75 C49.71,178.19 50.47,181.00 50.73,181.00 C50.98,181.00 53.21,178.76 55.66,176.03 C58.49,172.88 62.57,169.86 66.79,167.78 C72.70,164.87 74.37,164.51 81.48,164.56 C87.91,164.61 90.62,165.13 95.18,167.22 C104.81,171.63 111.90,179.73 115.35,190.22 C115.86,191.78 116.22,191.81 119.42,190.47 C123.92,188.59 132.08,188.59 136.58,190.47 C139.78,191.81 140.14,191.78 140.65,190.22 C144.10,179.73 151.19,171.63 160.82,167.22 C165.38,165.13 168.09,164.61 174.52,164.56 C181.63,164.51 183.30,164.87 189.21,167.78 C193.43,169.86 197.51,172.88 200.34,176.03 C202.79,178.76 205.00,181.00 205.24,181.00 C205.48,181.00 206.28,177.82 207.01,173.94 C207.93,169.08 208.96,166.44 210.33,165.48 C212.92,163.67 216.00,165.24 216.00,168.37 C216.00,171.95 209.26,201.14 208.19,202.21 C207.66,202.74 206.17,203.02 204.87,202.83 C202.83,202.55 202.33,201.63 201.26,196.23 C200.58,192.78 199.13,188.22 198.05,186.10 C192.22,174.66 175.90,169.36 163.50,174.88 C153.25,179.44 148.03,187.67 148.01,199.28 C148.00,207.40 149.78,212.13 154.80,217.33 C159.78,222.50 165.18,225.12 172.15,225.75 C181.57,226.60 186.48,224.68 193.80,217.26 C200.60,210.37 204.18,209.26 204.83,213.83 C205.59,219.16 196.24,228.25 186.05,232.10 C178.16,235.08 166.64,234.44 159.16,230.61 C149.02,225.42 141.38,215.14 140.22,205.14 C139.76,201.18 139.34,200.60 135.61,198.91 C130.40,196.54 125.60,196.54 120.40,198.91 C116.78,200.55 116.23,201.25 115.75,204.82 C115.02,210.27 111.02,218.77 107.06,223.28 C101.91,229.14 92.42,233.27 83.19,233.66 C78.50,233.86 73.86,233.45 71.29,232.61 ZM 92.00 223.92 C102.05,219.38 107.98,210.13 107.98,199.00 C107.98,183.51 97.33,173.06 81.50,173.03 C69.79,173.01 61.46,178.18 57.02,188.23 C52.87,197.61 54.62,209.01 61.39,216.70 C69.16,225.53 81.83,228.52 92.00,223.92 ZM 99.50 153.35 C97.85,153.16 92.22,152.52 87.00,151.94 C64.75,149.44 41.68,143.32 30.38,136.90 C27.56,135.31 23.42,132.01 21.19,129.59 C12.47,120.13 14.94,110.52 28.31,101.88 C36.02,96.89 41.33,95.20 43.52,97.01 C46.61,99.58 44.84,102.28 37.85,105.65 C30.14,109.38 24.00,115.02 24.00,118.40 C24.00,128.12 48.58,138.41 84.50,143.72 C101.84,146.29 155.47,146.27 172.00,143.70 C202.41,138.97 223.45,131.60 229.88,123.43 C233.73,118.53 232.45,114.79 225.24,109.81 C220.77,106.73 205.85,100.05 203.35,100.02 C202.70,100.01 202.27,101.34 202.35,103.11 C202.53,106.88 199.94,109.08 197.30,107.41 C195.34,106.18 194.13,103.34 179.01,64.29 C163.84,25.13 163.80,25.10 144.73,36.75 C134.52,42.99 133.26,43.50 128.09,43.47 C122.97,43.44 121.57,42.87 111.50,36.72 C103.90,32.07 99.50,30.00 97.27,30.00 C90.86,30.00 89.34,32.71 74.01,71.26 C66.19,90.92 59.36,107.28 58.84,107.60 C56.80,108.86 53.00,106.99 53.00,104.73 C53.00,101.89 80.65,32.47 83.31,28.63 C85.76,25.11 92.22,22.05 97.28,22.02 C102.13,21.99 106.00,23.64 115.77,29.91 C128.13,37.84 127.97,37.85 143.28,28.22 C149.90,24.06 153.25,22.59 156.88,22.24 C163.50,21.60 170.05,24.56 173.30,29.66 C174.65,31.77 180.65,46.22 186.62,61.76 L 197.49 90.03 L 206.00 92.60 C236.12,101.69 247.28,116.06 234.76,129.64 C224.13,141.18 198.22,149.29 160.14,152.99 C150.67,153.91 106.57,154.18 99.50,153.35 Z" fill="rgba(0,0,0,1)"/>
</g>
</svg>